<?xml version="1.0" encoding="UTF-8" standalone="no"?>
<!-- Generated by IcoMoon.io -->

<svg
   xmlns:dc="http://purl.org/dc/elements/1.1/"
   xmlns:cc="http://creativecommons.org/ns#"
   xmlns:rdf="http://www.w3.org/1999/02/22-rdf-syntax-ns#"
   xmlns:svg="http://www.w3.org/2000/svg"
   xmlns="http://www.w3.org/2000/svg"
   xmlns:sodipodi="http://sodipodi.sourceforge.net/DTD/sodipodi-0.dtd"
   xmlns:inkscape="http://www.inkscape.org/namespaces/inkscape"
   version="1.1"
   width="22.799999"
   height="24"
   viewBox="0 0 22.799999 24"
   id="svg3682"
   sodipodi:docname="icon.svg"
   inkscape:version="0.92.1 r15371">
  <metadata
     id="metadata3688">
    <rdf:RDF>
      <cc:Work
         rdf:about="">
        <dc:format>image/svg+xml</dc:format>
        <dc:type
           rdf:resource="http://purl.org/dc/dcmitype/StillImage" />
        <dc:title></dc:title>
      </cc:Work>
    </rdf:RDF>
  </metadata>
  <defs
     id="defs3686" />
  <sodipodi:namedview
     pagecolor="#ffffff"
     bordercolor="#666666"
     borderopacity="1"
     objecttolerance="10"
     gridtolerance="10"
     guidetolerance="10"
     inkscape:pageopacity="0"
     inkscape:pageshadow="2"
     inkscape:window-width="1366"
     inkscape:window-height="705"
     id="namedview3684"
     showgrid="false"
     inkscape:zoom="26.9"
     inkscape:cx="11.119331"
     inkscape:cy="9.0260223"
     inkscape:window-x="1272"
     inkscape:window-y="245"
     inkscape:window-maximized="1"
     inkscape:current-layer="svg3682" />
  <path
     d="M 20.4684,15.9636 C 20.376,15.9108 20.28,15.8592 20.1816,15.8088 21.3276,14.91 21.5988,13.9272 21.5988,13.2 c 0,-1.7028 -1.4316,-3.186 -3.81,-4.0908 0.138,-0.4212 0.21,-0.864 0.21,-1.3092 0,-2.316 -1.884,-4.2 -4.2,-4.2 -0.8208,0 -1.8,-0.2076 -1.8,-1.2 0,-0.5436 0.6936,-1.1376 0.9348,-1.302 0.2196,-0.1476 0.3168,-0.42 0.24,-0.6732 C 13.0968,0.1716 12.864,0 12.6,0 10.7196,0 8.7864,0.618 7.2984,1.6956 6.5388,2.2452 5.9364,2.8812 5.5068,3.5856 5.0376,4.3548 4.8,5.1672 4.8,6 4.8,6.3456 4.8288,6.6888 4.884,7.026 3.8652,7.518 3.0048,8.1672 2.376,8.9232 1.6068,9.8472 1.2,10.9116 1.2,12 c 0,0.6552 0.1476,1.3236 0.4272,1.9692 C 0.5616,14.994 0,16.1724 0,17.4 0,19.23 1.2336,20.9232 3.4716,22.1676 5.5992,23.3496 8.4144,24 11.4,24 c 3.0696,0 5.8548,-0.3996 7.842,-1.1244 2.94,-1.0716 3.558,-2.5908 3.558,-3.6756 0,-0.8736 -0.4044,-2.1444 -2.3316,-3.2364 z m -1.6368,5.7852 C 16.9716,22.4268 14.3328,22.8 11.4,22.8 8.616,22.8 6.0072,22.2024 4.0548,21.1176 2.214,20.0952 1.2,18.774 1.2,17.4 c 0,-0.9564 0.492,-1.7532 1.0404,-2.3424 0.138,0.1968 0.288,0.3888 0.4524,0.5748 C 3.648,16.7232 4.9776,17.556 6.4344,17.976 6.4896,17.9916 6.546,18 6.6012,18 6.8616,18 7.1016,17.8296 7.1772,17.5668 7.2696,17.2488 7.086,16.9164 6.7668,16.824 4.278,16.1052 2.4,14.0316 2.4,12 c 0,-1.4688 1.056,-2.8788 2.7948,-3.786 0.6288,1.7316 1.956,3.1692 3.6048,3.7524 0.066,0.0228 0.1332,0.0348 0.2004,0.0348 0.2472,0 0.4788,-0.1536 0.5652,-0.3996 C 9.6756,11.2896 9.5124,10.9464 9.1992,10.836 7.3752,10.1916 5.9988,8.1132 5.9988,6.0012 c 0,-1.2144 0.7104,-2.3976 2.0016,-3.3324 0.8928,-0.6456 1.9716,-1.1016 3.0936,-1.32 -0.1728,0.3096 -0.2952,0.6648 -0.2952,1.0524 0,1.1604 0.7884,2.4 3,2.4 1.6536,0 3,1.3464 3,3 0,0.3252 -0.0504,0.6396 -0.15,0.9408 C 16.1592,8.6088 15.6396,8.4972 15.0948,8.4096 14.7672,8.3568 14.46,8.58 14.4072,8.9064 c -0.0528,0.3264 0.1704,0.6348 0.4968,0.6876 1.6644,0.2676 3.0756,0.7764 4.0812,1.4712 0.6456,0.4464 1.4148,1.1784 1.4148,2.136 0,0.774 -0.5136,1.4616 -1.5276,2.046 -1.098,-0.39 -2.3832,-0.6768 -3.8028,-0.8424 -0.3288,-0.0384 -0.6276,0.1968 -0.666,0.5268 -0.0384,0.33 0.1968,0.6276 0.5268,0.666 2.0232,0.2364 3.7344,0.7248 4.9464,1.4112 0.786,0.4452 1.7232,1.1868 1.7232,2.1924 0,1.272 -1.506,2.088 -2.7684,2.5488 z"
     id="path3680"
     inkscape:connector-curvature="0"
     style="fill:#000000;stroke-width:1.20000005" />
</svg>
